<svg width="30" height="30" viewBox="0 0 30 30" fill="none" xmlns="http://www.w3.org/2000/svg">
<path d="M14.998 5.53418C12.113 5.53418 9.76562 7.88139 9.76562 10.7666C9.76562 13.6518 12.113 15.9989 14.998 15.9989C17.8831 15.9989 20.2305 13.6517 20.2305 10.7667C20.2305 7.88139 17.8831 5.53418 14.998 5.53418Z" fill="#595959"/>
<path d="M15 0C6.72891 0 0 6.72891 0 15C0 18.8269 1.44129 22.3229 3.80836 24.9758C4.31531 22.7497 5.47875 20.7186 7.1775 19.1364C8.36977 18.0258 9.76477 17.1947 11.2726 16.6779C9.31342 15.4381 8.00971 13.252 8.00971 10.767C8.00971 6.91248 11.1456 3.77678 15 3.77678C18.8544 3.77678 21.9901 6.91248 21.9901 10.767C21.9901 13.2509 20.6875 15.4362 18.7296 16.6763C20.3629 17.2357 21.86 18.1645 23.1168 19.4213C24.6524 20.9569 25.7126 22.887 26.1905 24.9768C28.5585 22.3237 30 18.8273 30 15C30 6.72891 23.2711 0 15 0Z" fill="#595959"/>
<path d="M5.33984 26.4638C7.95184 28.6688 11.3239 30 15.0018 30C18.6798 30 22.0518 28.6686 24.6638 26.4638C24.4233 24.2785 23.4412 22.2297 21.8758 20.6644C20.0393 18.8279 17.5981 17.8164 15.0018 17.8164C10.0571 17.8164 5.87656 21.5887 5.33984 26.4638Z" fill="#595959"/>
</svg>
