<svg width="176" height="189" viewBox="0 0 176 189" fill="none" xmlns="http://www.w3.org/2000/svg">
<path d="M159.592 127.17C159.072 126.603 158.373 126.233 157.612 126.123C156.851 126.013 156.075 126.17 155.416 126.566C147.248 131.484 137.913 134.125 128.379 134.215C118.846 134.305 109.462 131.841 101.202 127.078C75.734 112.374 66.9772 79.6914 81.6811 54.2235C86.4527 45.9695 93.3471 39.1436 101.648 34.4547C109.95 29.7658 119.355 27.385 128.887 27.5596C129.656 27.5737 130.406 27.3216 131.01 26.8459C131.615 26.3703 132.036 25.7003 132.202 24.9497C132.369 24.199 132.271 23.4138 131.925 22.727C131.579 22.0403 131.006 21.4944 130.304 21.1818C117.651 15.5658 103.666 13.6459 89.9681 15.6441C76.2698 17.6423 63.4168 23.4771 52.8955 32.4737C42.3741 41.4702 34.6141 53.2611 30.5127 66.483C26.4114 79.7048 26.1363 93.8175 29.7191 107.189C33.302 120.561 40.5966 132.645 50.7593 142.045C60.9221 151.445 73.5379 157.776 87.1479 160.307C100.758 162.837 114.806 161.464 127.669 156.345C140.531 151.227 151.682 142.572 159.831 131.382C160.283 130.76 160.506 130.001 160.463 129.233C160.419 128.465 160.111 127.737 159.592 127.17ZM67.2154 145.946C35.3801 127.566 24.4333 86.7127 42.8135 54.8773C49.722 42.8418 60.223 33.2695 72.8448 27.5017C85.4667 21.7339 99.5769 20.0598 113.198 22.7139C105.414 24.6792 98.1039 28.1853 91.6988 33.0249C85.2938 37.8645 79.9242 43.9394 75.9077 50.8902C59.3657 79.5419 69.2176 116.31 97.8692 132.852C104.823 136.863 112.511 139.439 120.478 140.428C128.444 141.417 136.528 140.798 144.252 138.608C133.783 147.717 120.726 153.322 106.911 154.638C93.0964 155.954 79.2161 152.914 67.2154 145.946Z" fill="#FAFAFA"/>
<path d="M126.923 75.3562L117.875 86.2424C117.477 86.7208 117.222 87.3008 117.136 87.9169C117.051 88.5331 117.14 89.1607 117.393 89.729C117.646 90.2972 118.053 90.7833 118.568 91.1323C119.083 91.4813 119.685 91.6793 120.307 91.704L134.45 92.2641L142.007 104.233C142.339 104.759 142.812 105.181 143.372 105.453C143.931 105.724 144.556 105.833 145.174 105.768C145.793 105.703 146.381 105.467 146.872 105.085C147.363 104.703 147.737 104.191 147.953 103.608L152.856 90.3295L166.574 86.8413C167.177 86.688 167.725 86.3691 168.156 85.9207C168.587 85.4722 168.884 84.9121 169.013 84.3036C169.143 83.6952 169.099 83.0627 168.888 82.4777C168.676 81.8927 168.305 81.3786 167.817 80.9935L156.704 72.2268L157.626 58.1016C157.666 57.4809 157.532 56.8613 157.239 56.3129C156.946 55.7645 156.505 55.309 155.966 54.998C155.427 54.6871 154.813 54.5329 154.191 54.5531C153.569 54.5733 152.966 54.7669 152.448 55.1122L140.677 62.9727L127.528 57.7317C126.95 57.5014 126.32 57.4374 125.707 57.5468C125.095 57.6563 124.526 57.9348 124.063 58.351C123.601 58.7672 123.265 59.3043 123.092 59.9018C122.919 60.4993 122.917 61.1332 123.085 61.7319L126.923 75.3562ZM139.836 69.8143C140.338 70.0146 140.882 70.0898 141.419 70.0334C141.957 69.977 142.473 69.7907 142.923 69.4907L150.535 64.4075L149.938 73.5408C149.903 74.0801 149.999 74.6198 150.219 75.1135C150.439 75.6072 150.775 76.04 151.2 76.3747L158.386 82.0433L149.515 84.299C148.991 84.4325 148.508 84.6914 148.107 85.0532C147.705 85.415 147.398 85.8689 147.211 86.376L144.04 94.9623L139.153 87.2229C138.865 86.7659 138.47 86.386 138.002 86.1157C137.533 85.8455 137.007 85.6932 136.467 85.6719L127.32 85.3085L133.171 78.2695C133.516 77.8537 133.756 77.3603 133.868 76.8317C133.98 76.3031 133.962 75.755 133.816 75.2348L131.334 66.4253L139.836 69.8143Z" fill="#FAFAFA"/>
</svg>
