<svg width="24" height="24" viewBox="0 0 24 24" fill="none" xmlns="http://www.w3.org/2000/svg">
<path d="M21.2695 9.17999C20.9795 8.71999 20.6695 8.28999 20.3495 7.88999C19.9795 7.41999 19.2795 7.37999 18.8595 7.79999L15.8595 10.8C16.0795 11.46 16.1195 12.22 15.9195 13.01C15.5695 14.42 14.4295 15.56 13.0195 15.91C12.2295 16.11 11.4695 16.07 10.8095 15.85C10.8095 15.85 9.37946 17.28 8.34946 18.31C7.84946 18.81 8.00946 19.69 8.67946 19.95C9.74946 20.36 10.8595 20.57 11.9995 20.57C13.7795 20.57 15.5095 20.05 17.0895 19.08C18.6995 18.08 20.1495 16.61 21.3195 14.74C22.2695 13.23 22.2195 10.69 21.2695 9.17999Z" fill="#595959"/>
<path d="M14.0206 9.98001L9.98062 14.02C9.47062 13.5 9.14062 12.78 9.14062 12C9.14062 10.43 10.4206 9.14001 12.0006 9.14001C12.7806 9.14001 13.5006 9.47001 14.0206 9.98001Z" fill="#595959"/>
<path d="M18.25 5.74999L14.86 9.13999C14.13 8.39999 13.12 7.95999 12 7.95999C9.76 7.95999 7.96 9.76999 7.96 12C7.96 13.12 8.41 14.13 9.14 14.86L5.76 18.25H5.75C4.64 17.35 3.62 16.2 2.75 14.84C1.75 13.27 1.75 10.72 2.75 9.14999C3.91 7.32999 5.33 5.89999 6.91 4.91999C8.49 3.95999 10.22 3.42999 12 3.42999C14.23 3.42999 16.39 4.24999 18.25 5.74999Z" fill="#595959"/>
<path d="M14.8601 12C14.8601 13.57 13.5801 14.86 12.0001 14.86C11.9401 14.86 11.8901 14.86 11.8301 14.84L14.8401 11.83C14.8601 11.89 14.8601 11.94 14.8601 12Z" fill="#595959"/>
<path d="M21.7709 2.23C21.4709 1.93 20.9809 1.93 20.6809 2.23L2.23086 20.69C1.93086 20.99 1.93086 21.48 2.23086 21.78C2.38086 21.92 2.57086 22 2.77086 22C2.97086 22 3.16086 21.92 3.31086 21.77L21.7709 3.31C22.0809 3.01 22.0809 2.53 21.7709 2.23Z" fill="#595959"/>
</svg>
