<svg width="60" height="60" viewBox="0 0 60 60" fill="none" xmlns="http://www.w3.org/2000/svg">
<path d="M38.9498 30C38.9498 34.95 34.9498 38.95 29.9998 38.95C25.0498 38.95 21.0498 34.95 21.0498 30C21.0498 25.05 25.0498 21.05 29.9998 21.05C34.9498 21.05 38.9498 25.05 38.9498 30Z" stroke="white" stroke-width="3" stroke-linecap="round" stroke-linejoin="round"/>
<path d="M30.0001 50.675C38.8251 50.675 47.0501 45.475 52.7751 36.475C55.0251 32.95 55.0251 27.025 52.7751 23.5C47.0501 14.5 38.8251 9.29999 30.0001 9.29999C21.1751 9.29999 12.9501 14.5 7.2251 23.5C4.9751 27.025 4.9751 32.95 7.2251 36.475C12.9501 45.475 21.1751 50.675 30.0001 50.675Z" stroke="white" stroke-width="3" stroke-linecap="round" stroke-linejoin="round"/>
</svg>
