<svg width="176" height="145" viewBox="0 0 176 145" fill="none" xmlns="http://www.w3.org/2000/svg">
<path d="M102.209 53.8922C100.881 51.5977 98.6964 49.9237 96.1355 49.2375C93.5746 48.5513 90.846 48.9089 88.5485 50.232L88.3033 50.3735C85.2879 46.7368 81.084 44.2829 76.4345 43.4457C71.785 42.6084 66.9892 43.4416 62.8945 45.798L55.5222 50.0544C56.1482 47.8216 56.0946 45.4529 55.3683 43.2507C54.6419 41.0485 53.2758 39.1127 51.4442 37.6905C49.6127 36.2682 47.3989 35.4241 45.0854 35.2657C42.7719 35.1074 40.4637 35.6421 38.4555 36.8015C36.4473 37.961 34.8301 39.6926 33.8105 41.7753C32.7909 43.858 32.4151 46.1973 32.731 48.4946C33.047 50.7918 34.0403 52.9429 35.5843 54.673C37.1283 56.4031 39.1529 57.6339 41.3995 58.2082L34.0272 62.4646C29.9391 64.8324 26.8195 68.5691 25.2198 73.0144C23.6201 77.4596 23.6432 82.3273 25.2851 86.7571L25.0401 86.8985C22.7433 88.2246 21.0673 90.4088 20.3809 92.9706C19.6944 95.5324 20.0538 98.2619 21.3799 100.559C22.706 102.856 24.8902 104.532 27.452 105.218C30.0137 105.904 32.7433 105.545 35.0401 104.219L61.7067 150.407C59.4099 151.733 57.7339 153.917 57.0475 156.479C56.361 159.041 56.7204 161.77 58.0465 164.067C59.3725 166.364 61.5567 168.04 64.1185 168.726C66.6803 169.413 69.4099 169.053 71.7067 167.727L71.9516 167.586C74.9672 171.223 79.1715 173.677 83.8214 174.514C88.4712 175.351 93.2673 174.518 97.362 172.161L126.228 155.495C130.316 153.127 133.435 149.39 135.035 144.945C136.635 140.5 136.612 135.632 134.97 131.202L135.215 131.061C137.512 129.735 139.188 127.551 139.874 124.989C140.561 122.427 140.201 119.697 138.875 117.401C137.549 115.104 135.365 113.428 132.803 112.741C130.241 112.055 127.512 112.414 125.215 113.74L98.5485 67.5525C100.843 66.2243 102.517 64.0401 103.203 61.4792C103.889 58.9183 103.532 56.1898 102.209 53.8922ZM41.7943 42.5845C42.6507 42.09 43.6345 41.8606 44.6213 41.9253C45.6081 41.99 46.5536 42.3458 47.3381 42.9479C48.1227 43.5499 48.7111 44.371 49.029 45.3074C49.3468 46.2438 49.3799 47.2535 49.1239 48.2087C48.868 49.1639 48.3345 50.0218 47.591 50.6738C46.8476 51.3258 45.9274 51.7428 44.9469 51.8718C43.9665 52.0009 42.9698 51.8364 42.0829 51.399C41.1959 50.9616 40.4586 50.271 39.9642 49.4146C39.3026 48.2659 39.1237 46.9016 39.4668 45.6211C39.8099 44.3406 40.647 43.2485 41.7943 42.5845ZM37.3606 68.2383L66.228 51.5717C68.7891 50.0973 71.7669 49.514 74.695 49.9129C77.6231 50.3118 80.3363 51.6705 82.4097 53.7762L31.1789 83.3543C30.392 80.5058 30.5719 77.4768 31.6905 74.7415C32.8091 72.0062 34.8032 69.7191 37.3606 68.2383ZM27.1533 97.2255C26.7123 96.4596 26.593 95.5501 26.8218 94.6964C27.0505 93.8428 27.6085 93.1147 28.3734 92.6719L91.8818 56.0054C92.2611 55.7815 92.681 55.6349 93.1173 55.5743C93.5536 55.5136 93.9975 55.54 94.4235 55.652C94.8495 55.7639 95.2491 55.9592 95.5992 56.2265C95.9493 56.4937 96.243 56.8278 96.4632 57.2092C96.6834 57.5907 96.8259 58.012 96.8823 58.4488C96.9388 58.8857 96.9081 59.3294 96.792 59.7543C96.6759 60.1792 96.4768 60.5769 96.2062 60.9244C95.9355 61.2719 95.5986 61.5623 95.2151 61.7788L31.7067 98.4454C30.9409 98.8864 30.0314 99.0056 29.1778 98.7769C28.3242 98.5482 27.5961 97.9903 27.1533 97.2255ZM47.6811 112.781L62.1462 119.361L60.6126 135.179L47.6811 112.781ZM66.3478 145.112L68.5612 122.28L90.4137 132.221C90.8967 132.441 91.4251 132.542 91.9551 132.516C92.4851 132.491 93.0013 132.339 93.4608 132.074C93.9203 131.808 94.3098 131.437 94.597 130.991C94.8842 130.545 95.0609 130.037 95.1122 129.509L97.4288 105.613L118.309 115.112L119.442 117.074L67.4801 147.074L66.3478 145.112ZM69.2414 115.265L71.3284 93.739L91.0135 102.695L88.9268 124.22L69.2414 115.265ZM112.574 105.179L98.109 98.5981L99.6426 82.7806L112.574 105.179ZM122.895 149.721L94.0272 166.388C91.4661 167.862 88.4883 168.445 85.5602 168.047C82.632 167.648 79.9188 166.289 77.8455 164.183L129.076 134.605C129.863 137.454 129.683 140.483 128.565 143.218C127.446 145.953 125.452 148.24 122.895 149.721ZM133.102 120.734C133.543 121.5 133.662 122.409 133.433 123.263C133.205 124.117 132.647 124.845 131.882 125.287L68.3734 161.954C67.9941 162.178 67.5742 162.324 67.1379 162.385C66.7016 162.446 66.2577 162.419 65.8317 162.307C65.4057 162.195 65.0061 162 64.656 161.733C64.3059 161.466 64.0122 161.132 63.792 160.75C63.5718 160.369 63.4293 159.947 63.3729 159.511C63.3164 159.074 63.3471 158.63 63.4632 158.205C63.5793 157.78 63.7784 157.382 64.049 157.035C64.3197 156.687 64.6566 156.397 65.0401 156.181L128.548 119.514C129.314 119.073 130.224 118.954 131.077 119.182C131.931 119.411 132.659 119.969 133.102 120.734ZM93.9074 72.847L91.6938 95.6797L69.8412 85.7382C69.3582 85.5185 68.8298 85.4174 68.2998 85.4431C67.7699 85.4687 67.2537 85.6205 66.7942 85.8858C66.3347 86.1511 65.9451 86.5222 65.6579 86.9684C65.3707 87.4145 65.1941 87.9227 65.1428 88.4508L62.8262 112.346L41.9459 102.847L40.8136 100.886L92.7751 70.8858L93.9074 72.847ZM139.05 71.0357L127.503 77.7025C126.746 78.149 126.196 78.8762 125.973 79.7259C125.75 80.5755 125.871 81.4789 126.31 82.2397C126.75 83.0005 127.471 83.5572 128.319 83.7887C129.166 84.0201 130.071 83.9077 130.836 83.4759L142.383 76.8091C142.767 76.5926 143.103 76.3022 143.374 75.9547C143.645 75.6072 143.844 75.2095 143.96 74.7846C144.076 74.3597 144.107 73.916 144.05 73.4792C143.994 73.0424 143.851 72.621 143.631 72.2396C143.411 71.8581 143.117 71.5241 142.767 71.2568C142.417 70.9895 142.017 70.7942 141.591 70.6823C141.165 70.5704 140.721 70.544 140.285 70.6046C139.849 70.6653 139.429 70.8118 139.05 71.0357ZM146.805 89.9162L133.986 93.5835C133.136 93.8267 132.417 94.3977 131.988 95.1708C131.559 95.9439 131.454 96.8558 131.698 97.7059C131.941 98.5559 132.512 99.2746 133.285 99.7037C134.058 100.133 134.97 100.237 135.82 99.9941L148.639 96.3257C149.06 96.2052 149.453 96.0031 149.796 95.7307C150.138 95.4584 150.424 95.1212 150.637 94.7384C150.849 94.3556 150.984 93.9347 151.034 93.4998C151.084 93.0648 151.047 92.6243 150.927 92.2033C150.807 91.7824 150.604 91.3893 150.332 91.0465C150.06 90.7038 149.722 90.418 149.34 90.2055C148.957 89.993 148.536 89.858 148.101 89.8082C147.666 89.7584 147.226 89.7947 146.805 89.9151L146.805 89.9162ZM119.795 70.6026C120.039 70.4619 120.264 70.2907 120.464 70.0933L129.982 60.7563C130.297 60.4503 130.549 60.0852 130.722 59.6819C130.895 59.2786 130.987 58.845 130.992 58.4061C130.998 57.9671 130.916 57.5314 130.753 57.124C130.589 56.7166 130.347 56.3456 130.039 56.0321C129.732 55.7187 129.366 55.469 128.962 55.2975C128.558 55.126 128.124 55.0361 127.685 55.0328C127.246 55.0295 126.81 55.1129 126.404 55.2783C125.997 55.4437 125.627 55.6878 125.315 55.9966L115.796 65.3343C115.216 65.9024 114.864 66.6624 114.805 67.4719C114.745 68.2814 114.983 69.0847 115.474 69.7312C115.965 70.3776 116.675 70.8229 117.47 70.9834C118.266 71.1439 119.092 71.0083 119.795 70.6026ZM33.9065 135.589C33.4645 134.824 32.7365 134.265 31.8826 134.036C31.0287 133.807 30.1189 133.927 29.3532 134.369L17.8061 141.036C17.4226 141.252 17.0857 141.543 16.815 141.89C16.5444 142.238 16.3452 142.635 16.2292 143.06C16.1131 143.485 16.0824 143.929 16.1389 144.366C16.1953 144.803 16.3377 145.224 16.558 145.605C16.7782 145.987 17.0719 146.321 17.422 146.588C17.7721 146.855 18.1717 147.051 18.5977 147.163C19.0237 147.275 19.4676 147.301 19.9039 147.24C20.3402 147.18 20.7601 147.033 21.1394 146.809L32.6865 140.142C33.452 139.7 34.0106 138.972 34.2394 138.119C34.4682 137.265 34.3484 136.355 33.9065 135.589ZM39.865 147.924L30.2793 157.192C29.9646 157.497 29.7128 157.86 29.5385 158.262C29.3642 158.663 29.2706 159.095 29.2633 159.533C29.2559 159.971 29.3348 160.406 29.4955 160.813C29.6562 161.22 29.8955 161.592 30.1998 161.907C30.5041 162.221 30.8675 162.473 31.2691 162.647C31.6707 162.822 32.1027 162.915 32.5404 162.923C32.9782 162.93 33.4131 162.851 33.8204 162.69C34.2276 162.53 34.5992 162.29 34.914 161.986L44.4987 152.716C44.8135 152.412 45.0652 152.049 45.2396 151.647C45.4139 151.245 45.5074 150.813 45.5148 150.376C45.5222 149.938 45.4433 149.503 45.2826 149.096C45.1219 148.688 44.8826 148.317 44.5783 148.002C44.2739 147.687 43.9106 147.436 43.509 147.261C43.1074 147.087 42.6754 146.993 42.2377 146.986C41.7999 146.979 41.365 147.057 40.9577 147.218C40.5505 147.379 40.1789 147.618 39.8641 147.923L39.865 147.924ZM13.4373 128.044L26.2834 124.469C26.7051 124.351 27.0995 124.152 27.4442 123.882C27.7889 123.613 28.0771 123.277 28.2923 122.896C28.5074 122.515 28.6455 122.095 28.6984 121.661C28.7513 121.226 28.7182 120.786 28.6008 120.364C28.4834 119.942 28.2841 119.548 28.0143 119.203C27.7445 118.858 27.4095 118.57 27.0283 118.355C26.6471 118.14 26.2273 118.002 25.7928 117.949C25.3583 117.896 24.9176 117.929 24.4959 118.047L11.6492 121.622C11.2275 121.739 10.833 121.938 10.4884 122.208C10.1437 122.478 9.85548 122.813 9.64027 123.194C9.42506 123.575 9.28703 123.995 9.23407 124.43C9.18111 124.864 9.21425 125.305 9.3316 125.726C9.44895 126.148 9.64822 126.543 9.91801 126.887C10.1878 127.232 10.5229 127.52 10.904 127.735C11.2852 127.951 11.705 128.089 12.1395 128.142C12.5741 128.195 13.0147 128.161 13.4364 128.044L13.4373 128.044Z" fill="white"/>
</svg>
