<svg width="40" height="40" viewBox="0 0 40 40" fill="none" xmlns="http://www.w3.org/2000/svg">
<path fill-rule="evenodd" clip-rule="evenodd" d="M20 0C20.0234 0 21.3567 1.31902 25.8869 5.85366H34.1131V14.0878L40 19.9805L34.1131 25.8732V34.1073H25.9025L20 40L14.1131 34.1073H5.88694V25.8732L0 19.9805L5.85575 14.0878L5.88694 5.85366H14.1131L17.037 2.92683C18.6433 1.31902 19.9766 0 20 0ZM15.1267 8.19512H8.22612L8.19493 15.1024L3.35283 19.9805L8.22612 24.8585V31.7659H15.1267L20 36.6439L24.8889 31.7659H31.7739V24.8585L36.6472 19.9805L31.7739 15.1024V8.19512H24.8733C21.1228 4.44098 20.0234 3.3561 20 3.3561C19.9766 3.3561 18.8694 4.44878 17.5439 5.77561L15.1267 8.19512ZM20 6.63415C20.0234 6.63415 20.9123 7.50829 23.9376 10.5366H29.4347V16.039L33.3723 19.9805L29.4347 23.922V29.4244H23.961L20 33.3659L16.0624 29.4244H10.5653V23.922L6.62768 19.9805L10.5341 16.039L10.5653 10.5366H16.0624L18.0117 8.58537C19.0799 7.50829 19.9766 6.63415 20 6.63415ZM17.076 12.878H12.9045L12.8733 17.0537L9.98051 19.9805L12.9045 22.9073V27.0829H17.076L20 30.0098L22.9552 27.0829H27.0955V22.9073L30.0195 19.9805L27.0955 17.0537V12.878H22.924C20.6862 10.638 20.0234 9.99024 20 9.99024C19.9766 9.99024 19.3138 10.638 18.5185 11.4341L17.076 12.878Z" fill="white"/>
</svg>
