<svg width="100" height="100" viewBox="0 0 100 100" fill="none" xmlns="http://www.w3.org/2000/svg">
<path fill-rule="evenodd" clip-rule="evenodd" d="M50 0C50.0585 0 53.3918 3.29756 64.7173 14.6341H85.2827V35.2195L100 49.9512L85.2827 64.6829V85.2683H64.7563L50 100L35.2827 85.2683H14.7173V64.6829L0 49.9512L14.6394 35.2195L14.7173 14.6341H35.2827L42.5926 7.31707C46.6082 3.29756 49.9415 0 50 0ZM37.8168 20.4878H20.5653L20.4873 37.7561L8.38207 49.9512L20.5653 62.1463V79.4146H37.8168L50 91.6098L62.2222 79.4146H79.4347V62.1463L91.6179 49.9512L79.4347 37.7561V20.4878H62.1832C52.807 11.1024 50.0585 8.39024 50 8.39024C49.9415 8.39024 47.1735 11.122 43.8596 14.439L37.8168 20.4878ZM50 16.5854C50.0585 16.5854 52.2807 18.7707 59.8441 26.3415H73.5867V40.0976L83.4308 49.9512L73.5867 59.8049V73.561H59.9025L50 83.4146L40.1559 73.561H26.4133V59.8049L16.5692 49.9512L26.3353 40.0976L26.4133 26.3415H40.1559L45.0292 21.4634C47.6998 18.7707 49.9415 16.5854 50 16.5854ZM42.6901 32.1951H32.2612L32.1832 42.6341L24.9513 49.9512L32.2612 57.2683V67.7073H42.6901L50 75.0244L57.3879 67.7073H67.7388V57.2683L75.0487 49.9512L67.7388 42.6341V32.1951H57.3099C51.7154 26.5951 50.0585 24.9756 50 24.9756C49.9415 24.9756 48.2846 26.5951 46.2963 28.5854L42.6901 32.1951Z" fill="#1DA599"/>
</svg>
