<svg width="48" height="49" viewBox="0 0 48 49" fill="none" xmlns="http://www.w3.org/2000/svg">
<path d="M44 24.3796V26.1596C44 33.2796 42.22 35.0396 35.12 35.0396H12.88C5.78 35.0396 4 33.2596 4 26.1596V13.4796C4 6.37961 5.78 4.59961 12.88 4.59961H16" stroke="white" stroke-width="3.2" stroke-linecap="round" stroke-linejoin="round"/>
<path d="M24 35.0396V44.5996" stroke="white" stroke-width="3.2" stroke-linecap="round" stroke-linejoin="round"/>
<path d="M4 26.5996H44" stroke="white" stroke-width="3.2" stroke-linecap="round" stroke-linejoin="round"/>
<path d="M15 44.5996H33" stroke="white" stroke-width="3.2" stroke-linecap="round" stroke-linejoin="round"/>
<path d="M35.72 19.3396H26.2C23.44 19.3396 22.52 17.4996 22.52 15.6596V8.61963C22.52 6.41963 24.32 4.61963 26.52 4.61963H35.72C37.76 4.61963 39.4 6.25963 39.4 8.29963V15.6596C39.4 17.6996 37.76 19.3396 35.72 19.3396Z" stroke="white" stroke-width="3.2" stroke-linecap="round" stroke-linejoin="round"/>
<path d="M41.8199 16.4398L39.3999 14.7398V9.2198L41.8199 7.5198C43.0199 6.6998 43.9999 7.1998 43.9999 8.6598V15.3198C43.9999 16.7798 43.0199 17.2798 41.8199 16.4398Z" stroke="white" stroke-width="3.2" stroke-linecap="round" stroke-linejoin="round"/>
</svg>
