<svg width="48" height="48" viewBox="0 0 48 48" fill="none" xmlns="http://www.w3.org/2000/svg">
<path d="M44 24V18C44 8 40 4 30 4H18C8 4 4 8 4 18V30C4 40 8 44 18 44H24" stroke="white" stroke-width="3.2" stroke-linecap="round" stroke-linejoin="round"/>
<path d="M41.9203 35.68L38.6603 36.78C37.7603 37.08 37.0403 37.78 36.7403 38.7L35.6403 41.96C34.7003 44.78 30.7403 44.72 29.8603 41.9L26.1603 30C25.4403 27.64 27.6203 25.44 29.9603 26.18L41.8803 29.88C44.6803 30.76 44.7203 34.74 41.9203 35.68Z" stroke="white" stroke-width="3.2" stroke-linecap="round" stroke-linejoin="round"/>
</svg>
