<svg width="48" height="48" viewBox="0 0 48 48" fill="none" xmlns="http://www.w3.org/2000/svg">
<path d="M43.3199 20.88L41.3599 29.24C39.6799 36.46 36.3599 39.38 30.1199 38.78C29.1199 38.7 28.0399 38.52 26.8799 38.24L23.5199 37.44C15.1799 35.46 12.5999 31.34 14.5599 22.98L16.5199 14.6C16.9199 12.9 17.3999 11.42 17.9999 10.2C20.3399 5.36002 24.3199 4.06002 30.9999 5.64002L34.3399 6.42002C42.7199 8.38002 45.2799 12.52 43.3199 20.88Z" stroke="white" stroke-width="4" stroke-linecap="round" stroke-linejoin="round"/>
<path d="M30.1202 38.7799C28.8802 39.6199 27.3202 40.3199 25.4202 40.9399L22.2602 41.9799C14.3202 44.5399 10.1402 42.3999 7.56019 34.4599L5.00019 26.56C2.44019 18.62 4.56019 14.42 12.5002 11.86L15.6602 10.82C16.4802 10.56 17.2602 10.34 18.0002 10.2C17.4002 11.42 16.9202 12.9 16.5202 14.6L14.5602 22.98C12.6002 31.34 15.1802 35.4599 23.5202 37.4399L26.8802 38.24C28.0402 38.52 29.1202 38.6999 30.1202 38.7799Z" stroke="white" stroke-width="4" stroke-linecap="round" stroke-linejoin="round"/>
<path d="M25.2798 17.0601L34.9798 19.5201" stroke="white" stroke-width="4" stroke-linecap="round" stroke-linejoin="round"/>
<path d="M23.3198 24.8L29.1198 26.2801" stroke="white" stroke-width="4" stroke-linecap="round" stroke-linejoin="round"/>
</svg>
