<svg width="30" height="30" viewBox="0 0 30 30" fill="none" xmlns="http://www.w3.org/2000/svg">
<rect width="30" height="30" rx="15" fill="#595959"/>
<path d="M18.1048 8.22003L11.3323 10.47C6.77984 11.9925 6.77984 14.475 11.3323 15.99L13.3423 16.6575L14.0098 18.6675C15.5248 23.22 18.0148 23.22 19.5298 18.6675L21.7873 11.9025C22.7923 8.86503 21.1423 7.20753 18.1048 8.22003ZM18.3448 12.255L15.4948 15.12C15.3823 15.2325 15.2398 15.285 15.0973 15.285C14.9548 15.285 14.8123 15.2325 14.6998 15.12C14.4823 14.9025 14.4823 14.5425 14.6998 14.325L17.5498 11.46C17.7673 11.2425 18.1273 11.2425 18.3448 11.46C18.5623 11.6775 18.5623 12.0375 18.3448 12.255Z" fill="white"/>
</svg>
