<svg width="24" height="24" viewBox="0 0 24 24" fill="none"
    xmlns="http://www.w3.org/2000/svg">
    <path d="M11.9707 22C17.4936 22 21.9707 17.5228 21.9707 12C21.9707 6.47715 17.4936 2 11.9707 2C6.44786 2 1.9707 6.47715 1.9707 12C1.9707 17.5228 6.44786 22 11.9707 22Z" stroke="#A3A3A3" stroke-width="1.5" stroke-linecap="round" stroke-linejoin="round"/>
    <path d="M12.4757 8.31954L13.2949 10.0375C13.3742 10.2024 13.5327 10.3261 13.7045 10.3536L15.5279 10.6285C15.9771 10.6972 16.1621 11.2744 15.8318 11.6043L14.5105 12.9374C14.3783 13.0611 14.3255 13.2535 14.3519 13.4459L14.669 15.3288C14.7483 15.7961 14.2726 16.1534 13.8762 15.9335L12.251 15.0402C12.0925 14.9577 11.8943 14.9577 11.7357 15.0402L10.1105 15.9335C9.70094 16.1534 9.23848 15.7961 9.31776 15.3288L9.63487 13.4459C9.6613 13.2535 9.60845 13.0748 9.47632 12.9374L8.16823 11.6043C7.8379 11.2744 8.02289 10.6972 8.47213 10.6285L10.2955 10.3536C10.4805 10.3261 10.6258 10.2162 10.7051 10.0375L11.5111 8.31954C11.6961 7.89349 12.2775 7.89349 12.4757 8.31954Z" stroke="#A3A3A3" stroke-width="1.5" stroke-linecap="round" stroke-linejoin="round"/>
</svg>
