<svg width="20" height="20" viewBox="0 0 20 20" fill="none" xmlns="http://www.w3.org/2000/svg">
<rect width="20" height="20" rx="4" fill="#FF882D"/>
<path d="M10.5946 5.39942L11.6186 7.54686C11.7177 7.75302 11.9159 7.90763 12.1306 7.94199L14.4098 8.28558C14.9714 8.37148 15.2026 9.09302 14.7897 9.50533L13.1381 11.1717C12.9729 11.3264 12.9069 11.5669 12.9399 11.8074L13.3363 14.161C13.4354 14.7451 12.8408 15.1917 12.3453 14.9169L10.3138 13.8002C10.1156 13.6971 9.86787 13.6971 9.66968 13.8002L7.63818 14.9169C7.12617 15.1917 6.5481 14.7451 6.6472 14.161L7.04359 11.8074C7.07662 11.5669 7.01056 11.3435 6.8454 11.1717L5.21029 9.50533C4.79738 9.09302 5.02861 8.37148 5.59016 8.28558L7.8694 7.94199C8.10063 7.90763 8.28231 7.7702 8.38141 7.54686L9.3889 5.39942C9.62013 4.86686 10.3468 4.86686 10.5946 5.39942Z" stroke="#FAFAFA" stroke-width="1.5" stroke-linecap="round" stroke-linejoin="round"/>
</svg>
