<svg width="30" height="30" viewBox="0 0 30 30" fill="none" xmlns="http://www.w3.org/2000/svg">
<path d="M14.9629 27.5C21.8664 27.5 27.4629 21.9036 27.4629 15C27.4629 8.09644 21.8664 2.5 14.9629 2.5C8.05933 2.5 2.46289 8.09644 2.46289 15C2.46289 21.9036 8.05933 27.5 14.9629 27.5Z" stroke="#1DA599" stroke-width="2" stroke-linecap="round" stroke-linejoin="round"/>
<path d="M15.4757 11.3193L16.2949 13.0372C16.3742 13.2022 16.5327 13.3259 16.7045 13.3533L18.5279 13.6282C18.9771 13.6969 19.1621 14.2742 18.8318 14.604L17.5105 15.9371C17.3783 16.0608 17.3255 16.2533 17.3519 16.4457L17.669 18.3285C17.7483 18.7958 17.2726 19.1532 16.8762 18.9333L15.251 18.0399C15.0925 17.9575 14.8943 17.9575 14.7357 18.0399L13.1105 18.9333C12.7009 19.1532 12.2385 18.7958 12.3178 18.3285L12.6349 16.4457C12.6613 16.2533 12.6084 16.0746 12.4763 15.9371L11.1682 14.604C10.8379 14.2742 11.0229 13.6969 11.4721 13.6282L13.2955 13.3533C13.4805 13.3259 13.6258 13.2159 13.7051 13.0372L14.5111 11.3193C14.6961 10.8932 15.2775 10.8932 15.4757 11.3193Z" stroke="#1DA599" stroke-width="2" stroke-linecap="round" stroke-linejoin="round"/>
</svg>
