<svg width="14" height="14" viewBox="0 0 14 14" fill="none" xmlns="http://www.w3.org/2000/svg">
<path d="M13.5668 6.74804C13.9571 6.36518 14.0949 5.76695 13.9342 5.2405C13.7734 4.69013 13.3372 4.30726 12.7861 4.23548L9.84714 3.78082C9.73234 3.75689 9.6405 3.6851 9.59457 3.58939L8.28581 0.813594C8.0562 0.31108 7.55106 0 7.02296 0C6.4719 0 5.98973 0.31108 5.73716 0.813594L4.42839 3.58939C4.38247 3.70903 4.26766 3.78082 4.15286 3.78082L1.21387 4.23548C0.685776 4.30726 0.22656 4.71406 0.0658338 5.2405C-0.094892 5.79088 0.0428726 6.36518 0.433207 6.74804L2.56856 8.90168C2.66041 8.97346 2.68337 9.11704 2.66041 9.23668L2.15527 12.2757C2.06342 12.8261 2.27007 13.4004 2.72929 13.7115C2.98186 13.9029 3.25739 13.9986 3.55588 13.9986C3.78549 13.9986 4.01509 13.9507 4.22174 13.8311L6.86224 12.3953C6.95408 12.3475 7.09184 12.3475 7.18369 12.3953L9.82418 13.8311C10.3064 14.0943 10.8804 14.0465 11.3166 13.7115C11.7529 13.3764 11.9825 12.8261 11.8907 12.2518L11.3855 9.21276C11.3626 9.09311 11.4085 8.97346 11.4774 8.87775L13.5668 6.74804Z" fill="#1DA599"/>
</svg>
