<svg width="60" height="60" viewBox="0 0 60 60" fill="none" xmlns="http://www.w3.org/2000/svg">
<path d="M25.1248 6.32503L10.0748 16.15C5.2498 19.3 5.2498 26.35 10.0748 29.5L25.1248 39.325C27.8248 41.1 32.2748 41.1 34.9748 39.325L49.9498 29.5C54.7498 26.35 54.7498 19.325 49.9498 16.175L34.9748 6.35003C32.2748 4.55003 27.8248 4.55003 25.1248 6.32503Z" stroke="white" stroke-width="3" stroke-linecap="round" stroke-linejoin="round"/>
<path d="M14.0748 32.7L14.0498 44.425C14.0498 47.6 16.4998 50.9999 19.4998 51.9999L27.4748 54.65C28.8498 55.1 31.1248 55.1 32.5248 54.65L40.4998 51.9999C43.4998 50.9999 45.9498 47.6 45.9498 44.425V32.825" stroke="white" stroke-width="3" stroke-linecap="round" stroke-linejoin="round"/>
<path d="M53.5 37.5V22.5" stroke="white" stroke-width="3" stroke-linecap="round" stroke-linejoin="round"/>
</svg>
