<svg width="25" height="24" viewBox="0 0 25 24" fill="none" xmlns="http://www.w3.org/2000/svg">
<g clip-path="url(#clip0_1504_5182)">
<path d="M12.5 0.375C6.07812 0.375 0.875 5.57812 0.875 12C0.875 18.4219 6.07812 23.625 12.5 23.625C18.9219 23.625 24.125 18.4219 24.125 12C24.125 5.57812 18.9219 0.375 12.5 0.375ZM18.2094 8.33906L16.3016 17.3297C16.1609 17.9672 15.7813 18.1219 15.2516 17.8219L12.3453 15.6797L10.9438 17.0297C10.7891 17.1844 10.6578 17.3156 10.3578 17.3156L10.5641 14.3578L15.95 9.49219C16.1844 9.28594 15.8984 9.16875 15.5891 9.375L8.93281 13.5656L6.06406 12.6703C5.44062 12.4734 5.42656 12.0469 6.19531 11.7469L17.4031 7.425C17.9234 7.2375 18.3781 7.55156 18.2094 8.33906Z" fill="#1DA599"/>
</g>
<defs>
<clipPath id="clip0_1504_5182">
<rect width="23.25" height="24" fill="white" transform="translate(0.875)"/>
</clipPath>
</defs>
</svg>
