<svg width="24" height="25" viewBox="0 0 24 25" fill="none" xmlns="http://www.w3.org/2000/svg">
<path d="M22 15.5V9.5C22 4.5 20 2.5 15 2.5H9C4 2.5 2 4.5 2 9.5V15.5C2 20.5 4 22.5 9 22.5H15C20 22.5 22 20.5 22 15.5Z" stroke="#1DA599" stroke-width="1.5" stroke-linecap="round" stroke-linejoin="round"/>
<path d="M2.52002 7.60999H21.48" stroke="#1DA599" stroke-width="1.5" stroke-linecap="round" stroke-linejoin="round"/>
<path d="M8.52002 2.60999V7.46999" stroke="#1DA599" stroke-width="1.5" stroke-linecap="round" stroke-linejoin="round"/>
<path d="M15.48 2.60999V7.01999" stroke="#1DA599" stroke-width="1.5" stroke-linecap="round" stroke-linejoin="round"/>
<path d="M9.75 14.95V13.75C9.75 12.21 10.84 11.58 12.17 12.35L13.21 12.95L14.25 13.55C15.58 14.32 15.58 15.58 14.25 16.35L13.21 16.95L12.17 17.55C10.84 18.32 9.75 17.69 9.75 16.15V14.95V14.95Z" stroke="#1DA599" stroke-width="1.5" stroke-miterlimit="10" stroke-linecap="round" stroke-linejoin="round"/>
</svg>
