<svg width="22" height="24" viewBox="0 0 22 24" fill="none" xmlns="http://www.w3.org/2000/svg">
<g clip-path="url(#clip0_1505_3902)">
<path d="M18.3547 4.55156C16.3906 2.58281 13.775 1.5 10.9953 1.5C5.25781 1.5 0.589063 6.16875 0.589063 11.9063C0.589063 13.7391 1.06719 15.5297 1.97656 17.1094L0.5 22.5L6.01719 21.0516C7.53594 21.8813 9.24688 22.3172 10.9906 22.3172H10.9953C16.7281 22.3172 21.5 17.6484 21.5 11.9109C21.5 9.13125 20.3188 6.52031 18.3547 4.55156ZM10.9953 20.5641C9.43906 20.5641 7.91563 20.1469 6.58906 19.3594L6.275 19.1719L3.00313 20.0297L3.875 16.8375L3.66875 16.5094C2.80156 15.1313 2.34688 13.5422 2.34688 11.9063C2.34688 7.13906 6.22813 3.25781 11 3.25781C13.3109 3.25781 15.4813 4.15781 17.1125 5.79375C18.7438 7.42969 19.7469 9.6 19.7422 11.9109C19.7422 16.6828 15.7625 20.5641 10.9953 20.5641ZM15.7391 14.0859C15.4813 13.9547 14.2016 13.3266 13.9625 13.2422C13.7234 13.1531 13.55 13.1109 13.3766 13.3734C13.2031 13.6359 12.7063 14.2172 12.5516 14.3953C12.4016 14.5688 12.2469 14.5922 11.9891 14.4609C10.4609 13.6969 9.45781 13.0969 8.45 11.3672C8.18281 10.9078 8.71719 10.9406 9.21406 9.94688C9.29844 9.77344 9.25625 9.62344 9.19063 9.49219C9.125 9.36094 8.60469 8.08125 8.38906 7.56094C8.17813 7.05469 7.9625 7.125 7.80313 7.11563C7.65313 7.10625 7.47969 7.10625 7.30625 7.10625C7.13281 7.10625 6.85156 7.17188 6.6125 7.42969C6.37344 7.69219 5.70313 8.32031 5.70313 9.6C5.70313 10.8797 6.63594 12.1172 6.7625 12.2906C6.89375 12.4641 8.59531 15.0891 11.2063 16.2188C12.8563 16.9313 13.5031 16.9922 14.3281 16.8703C14.8297 16.7953 15.8656 16.2422 16.0813 15.6328C16.2969 15.0234 16.2969 14.5031 16.2313 14.3953C16.1703 14.2781 15.9969 14.2125 15.7391 14.0859Z" fill="#1DA599"/>
</g>
<defs>
<clipPath id="clip0_1505_3902">
<rect width="21" height="24" fill="white" transform="translate(0.5)"/>
</clipPath>
</defs>
</svg>
